<svg width="23" height="23" viewBox="0 0 23 23" fill="none" xmlns="http://www.w3.org/2000/svg">
<path d="M10.7237 17.25H12.4487V12.4775H17.25V10.7525H12.4487V5.75H10.7237V10.7525H5.75V12.4775H10.7237V17.25ZM11.5 23C9.92833 23 8.44292 22.6981 7.04375 22.0944C5.64458 21.4906 4.42271 20.6665 3.37812 19.6219C2.33354 18.5773 1.50937 17.3554 0.905625 15.9562C0.301875 14.5571 0 13.0621 0 11.4713C0 9.89958 0.301875 8.41417 0.905625 7.015C1.50937 5.61583 2.33354 4.39875 3.37812 3.36375C4.42271 2.32875 5.64458 1.50937 7.04375 0.905625C8.44292 0.301875 9.93792 0 11.5287 0C13.1004 0 14.5858 0.301875 15.985 0.905625C17.3842 1.50937 18.6012 2.32875 19.6362 3.36375C20.6713 4.39875 21.4906 5.61583 22.0944 7.015C22.6981 8.41417 23 9.90917 23 11.5C23 13.0717 22.6981 14.5571 22.0944 15.9562C21.4906 17.3554 20.6713 18.5773 19.6362 19.6219C18.6012 20.6665 17.3842 21.4906 15.985 22.0944C14.5858 22.6981 13.0908 23 11.5 23ZM11.5287 21.275C14.2312 21.275 16.5312 20.3215 18.4287 18.4144C20.3262 16.5073 21.275 14.1929 21.275 11.4713C21.275 8.76875 20.3262 6.46875 18.4287 4.57125C16.5312 2.67375 14.2217 1.725 11.5 1.725C8.7975 1.725 6.49271 2.67375 4.58563 4.57125C2.67854 6.46875 1.725 8.77833 1.725 11.5C1.725 14.2025 2.67854 16.5073 4.58563 18.4144C6.49271 20.3215 8.80708 21.275 11.5287 21.275Z" fill="#183D36"/>
</svg>
