<svg width="44" height="35" viewBox="0 0 44 35" fill="none" xmlns="http://www.w3.org/2000/svg">
<path d="M5.25 12.45C4.88333 12.45 4.56667 12.3 4.3 12C4.03333 11.7 3.9 11.35 3.9 10.95C3.9 10.55 4.03333 10.2 4.3 9.9C4.56667 9.6 4.88333 9.45 5.25 9.45H12.7C13.6667 9.45 14.4167 9.75 14.95 10.35C15.4833 10.95 15.8333 11.65 16 12.45H5.25ZM9.4 34.4C6.76667 34.4 4.54167 33.475 2.725 31.625C0.908333 29.775 0 27.5333 0 24.9C0 22.2667 0.925 20.025 2.775 18.175C4.625 16.325 6.86667 15.4 9.5 15.4C10.5667 15.4 11.6333 15.5833 12.7 15.95C13.7667 16.3167 14.7333 16.8667 15.6 17.6H19.05C20.45 17.6 21.625 17.1083 22.575 16.125C23.525 15.1417 24 13.95 24 12.55V7.35L21.55 4.95L18.5 8L17.55 7.1L24.65 0L25.55 0.9L22.45 4L24.9 6.45H38.5C39.3667 6.45 40.0833 6.73333 40.65 7.3C41.2167 7.86667 41.5 8.58333 41.5 9.45V22.4C42.2667 23.0667 42.875 23.85 43.325 24.75C43.775 25.65 44 26.6167 44 27.65C44 29.5167 43.3417 31.1083 42.025 32.425C40.7083 33.7417 39.1167 34.4 37.25 34.4C35.3833 34.4 33.7917 33.7417 32.475 32.425C31.1583 31.1083 30.5 29.5667 30.5 27.8C30.5 27.6 30.5083 27.3583 30.525 27.075C30.5417 26.7917 30.5667 26.5667 30.6 26.4H18.9C18.5333 28.7 17.4667 30.6083 15.7 32.125C13.9333 33.6417 11.8333 34.4 9.4 34.4ZM9.5 31.4C11.3 31.4 12.8333 30.7667 14.1 29.5C15.3667 28.2333 16 26.7 16 24.9C16 23.1 15.3667 21.5667 14.1 20.3C12.8333 19.0333 11.3 18.4 9.5 18.4C7.7 18.4 6.16667 19.0333 4.9 20.3C3.63333 21.5667 3 23.1 3 24.9C3 26.7 3.63333 28.2333 4.9 29.5C6.16667 30.7667 7.7 31.4 9.5 31.4ZM37.25 31.4C38.2833 31.4 39.1667 31.0333 39.9 30.3C40.6333 29.5667 41 28.6833 41 27.65C41 26.6167 40.6333 25.7333 39.9 25C39.1667 24.2667 38.2833 23.9 37.25 23.9C36.2167 23.9 35.3333 24.2667 34.6 25C33.8667 25.7333 33.5 26.6167 33.5 27.65C33.5 28.6833 33.8667 29.5667 34.6 30.3C35.3333 31.0333 36.2167 31.4 37.25 31.4ZM9.5 28.4C8.53333 28.4 7.70833 28.0583 7.025 27.375C6.34167 26.6917 6 25.8667 6 24.9C6 23.9333 6.34167 23.1083 7.025 22.425C7.70833 21.7417 8.53333 21.4 9.5 21.4C10.4667 21.4 11.2917 21.7417 11.975 22.425C12.6583 23.1083 13 23.9333 13 24.9C13 25.8667 12.6583 26.6917 11.975 27.375C11.2917 28.0583 10.4667 28.4 9.5 28.4Z" fill="white"/>
</svg>
