<svg width="20" height="23" viewBox="0 0 20 23" fill="none" xmlns="http://www.w3.org/2000/svg">
<path d="M3.15625 23C2.63542 23 2.19271 22.8137 1.82813 22.441C1.46354 22.0683 1.28125 21.6157 1.28125 21.0833V2.875H0V0.958333H5.875V0H14.125V0.958333H20V2.875H18.7188V21.0833C18.7188 21.5944 18.5312 22.0417 18.1562 22.425C17.7812 22.8083 17.3438 23 16.8438 23H3.15625ZM16.8438 2.875H3.15625V21.0833H16.8438V2.875ZM6.46875 18.3361H8.34375V5.59028H6.46875V18.3361ZM11.6562 18.3361H13.5312V5.59028H11.6562V18.3361ZM3.15625 2.875V21.0833V2.875Z" fill="#183D36"/>
</svg>
