<svg width="15" height="15" viewBox="0 0 15 15" fill="none" xmlns="http://www.w3.org/2000/svg">
<path d="M1.22783 13.7722H2.12824L11.1937 4.70668L10.2933 3.80628L1.22783 12.8718V13.7722ZM13.7926 3.82674L11.1733 1.20737L12.0327 0.347885C12.2647 0.115962 12.5512 0 12.8922 0C13.2333 0 13.5198 0.115962 13.7517 0.347885L14.6521 1.24829C14.884 1.48022 15 1.76671 15 2.10778C15 2.44884 14.884 2.73533 14.6521 2.96726L13.7926 3.82674ZM12.9332 4.68622L2.61937 15H0V12.3806L10.3138 2.06685L12.9332 4.68622ZM10.7435 4.25648L10.2933 3.80628L11.1937 4.70668L10.7435 4.25648Z" fill="#183D36"/>
</svg>
