<svg width="25" height="23" viewBox="0 0 25 23" fill="none" xmlns="http://www.w3.org/2000/svg">
<path d="M12.5 23L11.2188 21.839C9.01042 19.8099 7.1875 18.058 5.75 16.5832C4.3125 15.1085 3.16667 13.7906 2.3125 12.6296C1.45833 11.4686 0.859375 10.4175 0.515625 9.47612C0.171875 8.53479 0 7.58299 0 6.62074C0 4.73806 0.630208 3.16394 1.89062 1.89836C3.15104 0.632787 4.70833 0 6.5625 0C7.75 0 8.84896 0.282401 9.85938 0.847203C10.8698 1.41201 11.75 2.22783 12.5 3.29468C13.375 2.16507 14.3021 1.33356 15.2812 0.800136C16.2604 0.266712 17.3125 0 18.4375 0C20.2917 0 21.849 0.632787 23.1094 1.89836C24.3698 3.16394 25 4.73806 25 6.62074C25 7.58299 24.8281 8.53479 24.4844 9.47612C24.1406 10.4175 23.5417 11.4686 22.6875 12.6296C21.8333 13.7906 20.6875 15.1085 19.25 16.5832C17.8125 18.058 15.9896 19.8099 13.7812 21.839L12.5 23ZM12.5 20.5211C14.6042 18.5757 16.3385 16.9075 17.7031 15.5164C19.0677 14.1253 20.151 12.9068 20.9531 11.8608C21.7552 10.8149 22.3177 9.88404 22.6406 9.06821C22.9635 8.25239 23.125 7.43656 23.125 6.62074C23.125 5.24011 22.6875 4.10527 21.8125 3.21623C20.9375 2.32719 19.8125 1.88267 18.4375 1.88267C17.375 1.88267 16.3854 2.21214 15.4688 2.87108C14.5521 3.53001 13.8125 4.45566 13.25 5.64802H11.7188C11.1771 4.47658 10.4479 3.55616 9.53125 2.88677C8.61458 2.21737 7.625 1.88267 6.5625 1.88267C5.1875 1.88267 4.0625 2.32719 3.1875 3.21623C2.3125 4.10527 1.875 5.24011 1.875 6.62074C1.875 7.43656 2.03646 8.25762 2.35938 9.0839C2.68229 9.91019 3.24479 10.8515 4.04688 11.9079C4.84896 12.9643 5.9375 14.1828 7.3125 15.5634C8.6875 16.9441 10.4167 18.5966 12.5 20.5211Z" fill="#183D36"/>
</svg>
