<svg width="26" height="26" viewBox="0 0 26 26" fill="none" xmlns="http://www.w3.org/2000/svg">
<path d="M14.3684 26V24.0402C15.3459 23.9095 16.2962 23.6537 17.2193 23.2726C18.1424 22.8915 19.0058 22.3853 19.8095 21.7538L21.1454 23.191C20.1462 24.0184 19.0819 24.6608 17.9524 25.1181C16.8229 25.5754 15.6282 25.8693 14.3684 26ZM23.1328 21.1658L21.7318 19.8266C22.3183 19.0427 22.807 18.1989 23.198 17.2952C23.589 16.3915 23.8605 15.4171 24.0125 14.3719H26C25.8262 15.6784 25.495 16.9033 25.0063 18.0465C24.5175 19.1897 23.8931 20.2295 23.1328 21.1658ZM24.0125 11.6281C23.8605 10.5829 23.589 9.6139 23.198 8.72111C22.807 7.82831 22.3183 6.97906 21.7318 6.17337L23.1328 4.83417C23.9582 5.92295 24.5881 7.00084 25.0226 8.06784C25.457 9.13484 25.7828 10.3216 26 11.6281H24.0125ZM11.599 26C8.29741 25.6298 5.53885 24.209 3.32331 21.7374C1.10777 19.2659 0 16.3534 0 13C0 9.64657 1.10777 6.73409 3.32331 4.26256C5.53885 1.79104 8.29741 0.370184 11.599 0V1.9598C8.84043 2.32998 6.54344 3.56574 4.70802 5.66708C2.8726 7.76842 1.95489 10.2127 1.95489 13C1.95489 15.7873 2.8726 18.2316 4.70802 20.3329C6.54344 22.4343 8.84043 23.67 11.599 24.0402V26ZM19.8421 4.24623C18.995 3.65829 18.1099 3.17379 17.1867 2.79271C16.2636 2.41164 15.3459 2.134 14.4336 1.9598V0C15.6065 0.174204 16.7686 0.48995 17.9198 0.947236C19.071 1.40452 20.1462 2.02513 21.1454 2.80904L19.8421 4.24623ZM13 19.892C11.1537 18.3241 9.7853 16.8706 8.89474 15.5314C8.00418 14.1922 7.5589 12.9564 7.5589 11.8241C7.5589 10.1039 8.10735 8.73744 9.20426 7.72487C10.3012 6.71231 11.5664 6.20603 13 6.20603C14.4336 6.20603 15.6988 6.71231 16.7957 7.72487C17.8926 8.73744 18.4411 10.1039 18.4411 11.8241C18.4411 12.9564 17.9958 14.1922 17.1053 15.5314C16.2147 16.8706 14.8463 18.3241 13 19.892ZM13 13.0653C13.4127 13.0653 13.7602 12.9238 14.0426 12.6407C14.325 12.3576 14.4662 12.0092 14.4662 11.5955C14.4662 11.2253 14.325 10.8878 14.0426 10.5829C13.7602 10.2781 13.4127 10.1256 13 10.1256C12.5873 10.1256 12.2398 10.2781 11.9574 10.5829C11.675 10.8878 11.5338 11.2253 11.5338 11.5955C11.5338 12.0092 11.675 12.3576 11.9574 12.6407C12.2398 12.9238 12.5873 13.0653 13 13.0653Z" fill="#183D36" fill-opacity="0.4"/>
</svg>
