<svg width="28" height="26" viewBox="0 0 28 26" fill="none" xmlns="http://www.w3.org/2000/svg">
<path d="M19.6466 14.9572C20.2455 14.9572 20.7786 14.736 21.2457 14.2937C21.7129 13.8513 21.9465 13.3352 21.9465 12.7454C21.9465 12.1783 21.7129 11.6792 21.2457 11.2482C20.7786 10.8172 20.2455 10.6016 19.6466 10.6016C19.0477 10.6016 18.5147 10.8172 18.0475 11.2482C17.5804 11.6792 17.3468 12.1783 17.3468 12.7454C17.3468 13.3352 17.5804 13.8513 18.0475 14.2937C18.5147 14.736 19.0477 14.9572 19.6466 14.9572ZM2.68539 21.1843V22.9878V2.57109V21.1843ZM2.68539 25.0294C2.13439 25.0294 1.63729 24.8253 1.19409 24.4169C0.750895 24.0086 0.529297 23.5322 0.529297 22.9878V2.57109C0.529297 2.04933 0.750895 1.57861 1.19409 1.15893C1.63729 0.739257 2.13439 0.529419 2.68539 0.529419H24.2463C24.8213 0.529419 25.3243 0.739257 25.7556 1.15893C26.1868 1.57861 26.4024 2.04933 26.4024 2.57109V7.13081H24.2463V2.57109H2.68539V22.9878H24.2463V18.4621H26.4024V22.9878C26.4024 23.5322 26.1868 24.0086 25.7556 24.4169C25.3243 24.8253 24.8213 25.0294 24.2463 25.0294H2.68539ZM15.5501 19.1426C14.7355 19.1426 14.0887 18.9158 13.6096 18.4621C13.1305 18.0084 12.8909 17.4072 12.8909 16.6586V8.93428C12.8909 8.16298 13.1305 7.55616 13.6096 7.11379C14.0887 6.67143 14.7355 6.45025 15.5501 6.45025H25.2525C26.067 6.45025 26.7138 6.67143 27.193 7.11379C27.6721 7.55616 27.9116 8.16298 27.9116 8.93428V16.6586C27.9116 17.4072 27.6721 18.0084 27.193 18.4621C26.7138 18.9158 26.067 19.1426 25.2525 19.1426H15.5501ZM25.7556 17.1009V8.49192H15.047V17.1009H25.7556Z" fill="#1FCC6C"/>
</svg>
